<svg xmlns="http://www.w3.org/2000/svg" width="648" height="568" style="background:#111111">
<defs><style>text { font-family: -apple-system, Helvetica Neue, sans-serif; }</style></defs>
<text x="324" y="26" font-size="13" fill="#EBEBF5" text-anchor="middle" font-weight="bold">ドットカラーパレット（黒背景）</text>
<circle cx="39" cy="77" r="9" fill="#FFFFFF"/>
<text x="56" y="72" font-size="9" fill="#8E8E93">#FFFFFF</text>
<text x="56" y="85" font-size="10" fill="#EBEBF5">ピュアホワイト</text>
<circle cx="159" cy="77" r="9" fill="#F2F2F7"/>
<text x="176" y="72" font-size="9" fill="#8E8E93">#F2F2F7</text>
<text x="176" y="85" font-size="10" fill="#EBEBF5">ソフトホワイト</text>
<circle cx="279" cy="77" r="9" fill="#E5E5EA"/>
<text x="296" y="72" font-size="9" fill="#8E8E93">#E5E5EA</text>
<text x="296" y="85" font-size="10" fill="#EBEBF5">ミルクホワイト</text>
<circle cx="399" cy="77" r="9" fill="#D1D1D6"/>
<text x="416" y="72" font-size="9" fill="#8E8E93">#D1D1D6</text>
<text x="416" y="85" font-size="10" fill="#EBEBF5">シルバーホワイト</text>
<circle cx="519" cy="77" r="9" fill="#AEAEB2"/>
<text x="536" y="72" font-size="9" fill="#8E8E93">#AEAEB2</text>
<text x="536" y="85" font-size="10" fill="#EBEBF5">ライトグレー</text>
<circle cx="39" cy="137" r="9" fill="#8E8E93"/>
<text x="56" y="132" font-size="9" fill="#8E8E93">#8E8E93</text>
<text x="56" y="145" font-size="10" fill="#EBEBF5">ミドルグレー</text>
<circle cx="159" cy="137" r="9" fill="#636366"/>
<text x="176" y="132" font-size="9" fill="#8E8E93">#636366</text>
<text x="176" y="145" font-size="10" fill="#EBEBF5">スチールグレー</text>
<circle cx="279" cy="137" r="9" fill="#48484A"/>
<text x="296" y="132" font-size="9" fill="#8E8E93">#48484A</text>
<text x="296" y="145" font-size="10" fill="#EBEBF5">チャコールグレー</text>
<circle cx="399" cy="137" r="9" fill="#3A3A3C"/>
<text x="416" y="132" font-size="9" fill="#8E8E93">#3A3A3C</text>
<text x="416" y="145" font-size="10" fill="#EBEBF5">ダークグレー</text>
<circle cx="519" cy="137" r="9" fill="#1C1C1E"/>
<text x="536" y="132" font-size="9" fill="#8E8E93">#1C1C1E</text>
<text x="536" y="145" font-size="10" fill="#EBEBF5">ニアブラック</text>
<circle cx="39" cy="197" r="9" fill="#FFF9C4"/>
<text x="56" y="192" font-size="9" fill="#8E8E93">#FFF9C4</text>
<text x="56" y="205" font-size="10" fill="#EBEBF5">ペールイエロー</text>
<circle cx="159" cy="197" r="9" fill="#FFF176"/>
<text x="176" y="192" font-size="9" fill="#8E8E93">#FFF176</text>
<text x="176" y="205" font-size="10" fill="#EBEBF5">レモンイエロー</text>
<circle cx="279" cy="197" r="9" fill="#FFE566"/>
<text x="296" y="192" font-size="9" fill="#8E8E93">#FFE566</text>
<text x="296" y="205" font-size="10" fill="#EBEBF5">サンシャイン</text>
<circle cx="399" cy="197" r="9" fill="#FFCC00"/>
<text x="416" y="192" font-size="9" fill="#8E8E93">#FFCC00</text>
<text x="416" y="205" font-size="10" fill="#EBEBF5">ゴールデンイエロー</text>
<circle cx="519" cy="197" r="9" fill="#FFB300"/>
<text x="536" y="192" font-size="9" fill="#8E8E93">#FFB300</text>
<text x="536" y="205" font-size="10" fill="#EBEBF5">ディープゴールド</text>
<circle cx="39" cy="257" r="9" fill="#FF8F00"/>
<text x="56" y="252" font-size="9" fill="#8E8E93">#FF8F00</text>
<text x="56" y="265" font-size="10" fill="#EBEBF5">アンバー</text>
<circle cx="159" cy="257" r="9" fill="#FFE4E1"/>
<text x="176" y="252" font-size="9" fill="#8E8E93">#FFE4E1</text>
<text x="176" y="265" font-size="10" fill="#EBEBF5">ミスティローズ</text>
<circle cx="279" cy="257" r="9" fill="#FFD5CC"/>
<text x="296" y="252" font-size="9" fill="#8E8E93">#FFD5CC</text>
<text x="296" y="265" font-size="10" fill="#EBEBF5">ペールピンク</text>
<circle cx="399" cy="257" r="9" fill="#FF8A80"/>
<text x="416" y="252" font-size="9" fill="#8E8E93">#FF8A80</text>
<text x="416" y="265" font-size="10" fill="#EBEBF5">コーラルピンク</text>
<circle cx="519" cy="257" r="9" fill="#FF5252"/>
<text x="536" y="252" font-size="9" fill="#8E8E93">#FF5252</text>
<text x="536" y="265" font-size="10" fill="#EBEBF5">サーモンレッド</text>
<circle cx="39" cy="317" r="9" fill="#D32F2F"/>
<text x="56" y="312" font-size="9" fill="#8E8E93">#D32F2F</text>
<text x="56" y="325" font-size="10" fill="#EBEBF5">クリムゾン</text>
<circle cx="159" cy="317" r="9" fill="#B71C1C"/>
<text x="176" y="312" font-size="9" fill="#8E8E93">#B71C1C</text>
<text x="176" y="325" font-size="10" fill="#EBEBF5">ディープレッド</text>
<circle cx="279" cy="317" r="9" fill="#E3F2FD"/>
<text x="296" y="312" font-size="9" fill="#8E8E93">#E3F2FD</text>
<text x="296" y="325" font-size="10" fill="#EBEBF5">アイスブルー</text>
<circle cx="399" cy="317" r="9" fill="#90CAF9"/>
<text x="416" y="312" font-size="9" fill="#8E8E93">#90CAF9</text>
<text x="416" y="325" font-size="10" fill="#EBEBF5">スカイブルー</text>
<circle cx="519" cy="317" r="9" fill="#64B5F6"/>
<text x="536" y="312" font-size="9" fill="#8E8E93">#64B5F6</text>
<text x="536" y="325" font-size="10" fill="#EBEBF5">コーンフラワー</text>
<circle cx="39" cy="377" r="9" fill="#2196F3"/>
<text x="56" y="372" font-size="9" fill="#8E8E93">#2196F3</text>
<text x="56" y="385" font-size="10" fill="#EBEBF5">ロイヤルブルー</text>
<circle cx="159" cy="377" r="9" fill="#1565C0"/>
<text x="176" y="372" font-size="9" fill="#8E8E93">#1565C0</text>
<text x="176" y="385" font-size="10" fill="#EBEBF5">コバルトブルー</text>
<circle cx="279" cy="377" r="9" fill="#0D1B6E"/>
<text x="296" y="372" font-size="9" fill="#8E8E93">#0D1B6E</text>
<text x="296" y="385" font-size="10" fill="#EBEBF5">ネイビー</text>
<circle cx="399" cy="377" r="9" fill="#E8F5E9"/>
<text x="416" y="372" font-size="9" fill="#8E8E93">#E8F5E9</text>
<text x="416" y="385" font-size="10" fill="#EBEBF5">ミントグリーン</text>
<circle cx="519" cy="377" r="9" fill="#A5D6A7"/>
<text x="536" y="372" font-size="9" fill="#8E8E93">#A5D6A7</text>
<text x="536" y="385" font-size="10" fill="#EBEBF5">ライムグリーン</text>
<circle cx="39" cy="437" r="9" fill="#4CAF50"/>
<text x="56" y="432" font-size="9" fill="#8E8E93">#4CAF50</text>
<text x="56" y="445" font-size="10" fill="#EBEBF5">エメラルド</text>
<circle cx="159" cy="437" r="9" fill="#2E7D32"/>
<text x="176" y="432" font-size="9" fill="#8E8E93">#2E7D32</text>
<text x="176" y="445" font-size="10" fill="#EBEBF5">フォレストグリーン</text>
<circle cx="279" cy="437" r="9" fill="#EDE7F6"/>
<text x="296" y="432" font-size="9" fill="#8E8E93">#EDE7F6</text>
<text x="296" y="445" font-size="10" fill="#EBEBF5">ラベンダー</text>
<circle cx="399" cy="437" r="9" fill="#CE93D8"/>
<text x="416" y="432" font-size="9" fill="#8E8E93">#CE93D8</text>
<text x="416" y="445" font-size="10" fill="#EBEBF5">ライラック</text>
<circle cx="519" cy="437" r="9" fill="#9C27B0"/>
<text x="536" y="432" font-size="9" fill="#8E8E93">#9C27B0</text>
<text x="536" y="445" font-size="10" fill="#EBEBF5">バイオレット</text>
<circle cx="39" cy="497" r="9" fill="#4A148C"/>
<text x="56" y="492" font-size="9" fill="#8E8E93">#4A148C</text>
<text x="56" y="505" font-size="10" fill="#EBEBF5">ディープパープル</text>
<circle cx="159" cy="497" r="9" fill="#FFCCBC"/>
<text x="176" y="492" font-size="9" fill="#8E8E93">#FFCCBC</text>
<text x="176" y="505" font-size="10" fill="#EBEBF5">ピーチ</text>
<circle cx="279" cy="497" r="9" fill="#FF8A65"/>
<text x="296" y="492" font-size="9" fill="#8E8E93">#FF8A65</text>
<text x="296" y="505" font-size="10" fill="#EBEBF5">タンジェリン</text>
<circle cx="399" cy="497" r="9" fill="#FF5722"/>
<text x="416" y="492" font-size="9" fill="#8E8E93">#FF5722</text>
<text x="416" y="505" font-size="10" fill="#EBEBF5">オレンジ</text>
<circle cx="519" cy="497" r="9" fill="#BF360C"/>
<text x="536" y="492" font-size="9" fill="#8E8E93">#BF360C</text>
<text x="536" y="505" font-size="10" fill="#EBEBF5">バーントオレンジ</text>
</svg>